<svg xmlns="http://www.w3.org/2000/svg" xmlns:xlink="http://www.w3.org/1999/xlink" version="1.1" x="0px" y="0px" viewBox="0 0 100 125" style="enable-background:new 0 0 100 100;" xml:space="preserve"><g fill="#eeff01" stroke="#eeff01" stroke-width="1"><path d="M73.232,11.761c-0.357-0.619-1.018-1-1.732-1h-43c-0.714,0-1.375,0.381-1.732,1L5.268,49c-0.357,0.619-0.357,1.381,0,2   l21.5,37.239c0.357,0.619,1.018,1,1.732,1h43c0.714,0,1.375-0.381,1.732-1L94.732,51c0.357-0.619,0.357-1.381,0-2L73.232,11.761z    M88.036,45.402L34.964,14.761h35.382L88.036,45.402z M90,50L30,84.641V15.359L90,50z M9.31,50L27,19.359v61.282L9.31,50z    M70.345,85.239H34.964l53.072-30.641L70.345,85.239z" /></g></svg>