<svg xmlns="http://www.w3.org/2000/svg" version="1.1" xmlns:xlink="http://www.w3.org/1999/xlink" xmlns:svgjs="http://svgjs.dev/svgjs" width="2000" height="2000" viewBox="0 0 2000 2000"><g transform="matrix(1,0,0,1,0.37847273215277255,0.3784727321525452)"><svg viewBox="0 0 334 334" data-background-color="#b0cbe8" preserveAspectRatio="xMidYMid meet" width="2000" height="2000"  xmlns="http://www.w3.org/2000/svg" xmlns:xlink="http://www.w3.org/1999/xlink"><g id="tight-bounds" transform="matrix(1,0,0,1,-0.0632049462695079,-0.06320494626947948)"><svg viewBox="0 0 334.126409892539 334.126409892539" height="334.126409892539" width="334.126409892539"><g><svg></svg></g><g><svg viewBox="0 0 334.126409892539 334.126409892539" height="334.126409892539" width="334.126409892539"><g><path d="M0 167.063c0-92.266 74.797-167.063 167.063-167.063 92.266 0 167.063 74.797 167.063 167.063 0 92.266-74.797 167.063-167.063 167.063-92.266 0-167.063-74.797-167.063-167.063zM167.063 324.53c86.967 0 157.467-70.5 157.467-157.467 0-86.967-70.5-157.467-157.467-157.467-86.967 0-157.467 70.5-157.467 157.467 0 86.967 70.5 157.467 157.467 157.467z" data-fill-palette-color="tertiary" fill="#eeff01" stroke="transparent"></path><ellipse rx="160.38067674841872" ry="160.38067674841872" cx="167.0632049462695" cy="167.0632049462695" fill="#eeff01" stroke="transparent" stroke-width="0" fill-opacity="1" data-fill-palette-color="tertiary"></ellipse></g><g transform="matrix(1,0,0,1,63.5687902125659,71.28398433269095)"><svg viewBox="0 0 206.98882946740721 191.55844122715712" height="191.55844122715712" width="206.98882946740721"><g><svg viewBox="0 0 206.98882946740721 191.55844122715712" height="191.55844122715712" width="206.98882946740721"><g><svg viewBox="0 0 370.3104068088062 342.7048912784883" height="191.55844122715712" width="206.98882946740721"><g><svg viewBox="0 0 148.3839991810217 342.7048912784883" height="342.7048912784883" width="148.3839991810217"><g id="textblocktransform"><svg viewBox="0 0 148.3839991810217 342.7048912784883" height="342.7048912784883" width="148.3839991810217" id="textblock"><g><svg viewBox="0 0 148.3839991810217 190.3746100603733" height="190.3746100603733" width="148.3839991810217"><g transform="matrix(1,0,0,1,0,0)"><svg width="148.3839991810217" viewBox="2.95 -36.55 28.8 36.949999999999996" height="190.3746100603733" data-palette-color="#b0cbe8"><path d="M29.7-7L31.75-2.7Q30.85-2.1 29.3-1.35 27.75-0.6 25.68-0.1 23.6 0.4 21.15 0.4L21.15 0.4Q16.95 0.35 13.58-1.1 10.2-2.55 7.85-5.05 5.5-7.55 4.23-10.83 2.95-14.1 2.95-17.8L2.95-17.8Q2.95-21.85 4.28-25.28 5.6-28.7 8-31.23 10.4-33.75 13.68-35.15 16.95-36.55 20.85-36.55L20.85-36.55Q24.1-36.55 26.75-35.68 29.4-34.8 31.3-33.6L31.3-33.6 29.35-29.1Q27.85-30.1 25.73-31 23.6-31.9 21-31.9L21-31.9Q18.35-31.9 16-30.85 13.65-29.8 11.85-27.9 10.05-26 9.03-23.48 8-20.95 8-18.05L8-18.05Q8-15.1 8.93-12.58 9.85-10.05 11.58-8.2 13.3-6.35 15.75-5.3 18.2-4.25 21.25-4.25L21.25-4.25Q24-4.25 26.15-5.1 28.3-5.95 29.7-7L29.7-7Z" opacity="1" transform="matrix(1,0,0,1,0,0)" fill="#b0cbe8" class="wordmark-text-0" data-fill-palette-color="quaternary" id="text-0"></path></svg></g></svg></g><g transform="matrix(1,0,0,1,0,235.317486504986)"><svg viewBox="0 0 148.3839991810217 107.38740477350227" height="107.38740477350227" width="148.3839991810217"><g transform="matrix(1,0,0,1,0,0)"><svg width="148.3839991810217" viewBox="1 -35 210.4 146.7" height="107.38740477350227" data-palette-color="#b0cbe8"><svg></svg><svg></svg><svg></svg><g class="slogan-text-1" data-fill-palette-color="quaternary" id="text-1"><path d="M29.4-35v35.05h-4.1l-16.85-28.05v28h-3.9v-35h3.9l17.2 29.1v-29.1zM53.95-12.33c0-3.213-0.633-5.67-1.9-7.37-1.267-1.7-3.117-2.55-5.55-2.55-2.433 0-4.157 0.807-5.17 2.42-1.02 1.62-1.53 4.097-1.53 7.43v0c0 6.3 2.317 9.45 6.95 9.45v0c2.433 0 4.243-0.76 5.43-2.28 1.18-1.513 1.77-3.88 1.77-7.1zM54.85-3.1c-1.9 2.267-4.583 3.4-8.05 3.4-3.467 0-6.123-1.127-7.97-3.38-1.853-2.247-2.78-5.397-2.78-9.45 0-4.047 0.893-7.22 2.68-9.52 1.78-2.3 4.397-3.45 7.85-3.45 3.447 0 6.163 1.167 8.15 3.5 1.98 2.333 2.97 5.5 2.97 9.5 0 4-0.95 7.133-2.85 9.4zM65-5.4v0-16.6h-3.4v-3h3.45v-7.15h3.75v7.15h6.1v3h-6.15v15.9c0 2.233 1.133 3.35 3.4 3.35v0c0.533 0 1.35-0.1 2.45-0.3v0l0.55 2.7c-1.367 0.433-2.773 0.65-4.22 0.65-1.453 0-2.803-0.443-4.05-1.33-1.253-0.88-1.88-2.337-1.88-4.37zM112.55-35h4.05l-11.5 19.25v15.75h-3.75v-15.75l-11.05-19.25h4.15l8.85 16.2zM134.5-12.33c0-3.213-0.633-5.67-1.9-7.37-1.267-1.7-3.117-2.55-5.55-2.55-2.433 0-4.157 0.807-5.17 2.42-1.02 1.62-1.53 4.097-1.53 7.43v0c0 6.3 2.317 9.45 6.95 9.45v0c2.433 0 4.24-0.76 5.42-2.28 1.187-1.513 1.78-3.88 1.78-7.1zM135.4-3.1c-1.9 2.267-4.583 3.4-8.05 3.4-3.467 0-6.123-1.127-7.97-3.38-1.853-2.247-2.78-5.397-2.78-9.45 0-4.047 0.893-7.22 2.68-9.52 1.78-2.3 4.397-3.45 7.85-3.45 3.447 0 6.163 1.167 8.15 3.5 1.98 2.333 2.97 5.5 2.97 9.5 0 4-0.95 7.133-2.85 9.4zM159.25-6.35v0-18.65h3.8v25h-2.2l-1.25-2.95c-2.667 2.167-5.217 3.25-7.65 3.25-2.433 0-4.29-0.71-5.57-2.13-1.287-1.413-1.93-3.42-1.93-6.02v0-17.15h3.75v16.55c0 1.967 0.293 3.383 0.88 4.25 0.58 0.867 1.543 1.3 2.89 1.3 1.353 0 2.73-0.367 4.13-1.1 1.4-0.733 2.45-1.517 3.15-2.35zM175.9-19.1v0 19.1h-3.75v-25h2.4l0.6 2.95c1.6-1.267 2.933-2.16 4-2.68 1.067-0.513 2.283-0.77 3.65-0.77v0c0.667 0 1.167 0.033 1.5 0.1v0l0.7 0.2-0.6 3.45c-0.6-0.2-1.417-0.3-2.45-0.3v0c-2 0-4.017 0.983-6.05 2.95z" fill="#b0cbe8" fill-rule="nonzero" stroke="none" stroke-width="1" stroke-linecap="butt" stroke-linejoin="miter" stroke-miterlimit="10" stroke-dasharray="" stroke-dashoffset="0" font-family="none" font-weight="none" font-size="none" text-anchor="none" style="mix-blend-mode: normal" data-fill-palette-color="quaternary" opacity="1"></path><path transform="translate(0,49.9)" d="M14.5 0h-3.7v-31.65h-9.8v-3.35h23.2v3.35h-9.7zM34.2 0.5v0l-8.45-25.5h4.25l6.35 21 6.4-21h4.15l-8.6 25c-1.1 3.233-2.317 5.733-3.65 7.5-1.333 1.767-3.05 3.2-5.15 4.3v0l-1.4-2.6c1.333-0.767 2.583-1.9 3.75-3.4 1.167-1.5 1.95-3.267 2.35-5.3zM55.75-2.05v13.95h-3.75v-36.85h2.2l1.3 2.8c1.4-1.067 2.71-1.893 3.93-2.48 1.213-0.58 2.553-0.87 4.02-0.87v0c6 0 9 4.317 9 12.95v0c0 4.9-1.067 8.317-3.2 10.25v0c-1.9 1.767-4.057 2.65-6.47 2.65-2.42 0-4.763-0.8-7.03-2.4zM55.75-18.8v0 13.35c0.667 0.8 1.567 1.433 2.7 1.9 1.133 0.467 2.217 0.7 3.25 0.7v0c2.6 0 4.417-0.767 5.45-2.3 1.033-1.533 1.55-3.933 1.55-7.2 0-3.267-0.517-5.733-1.55-7.4-1.033-1.667-2.35-2.5-3.95-2.5v0c-1.067 0-2.123 0.217-3.17 0.65-1.053 0.433-1.837 0.84-2.35 1.22-0.52 0.387-1.163 0.913-1.93 1.58zM82.35 0h-3.75v-25h3.75zM78.6-35h3.75v4.45h-3.75zM105.4-3.9v0l0.75 2.95c-2.667 0.8-5.017 1.2-7.05 1.2v0c-3.567 0-6.25-1.167-8.05-3.5-1.8-2.333-2.7-5.55-2.7-9.65 0-4.1 0.933-7.227 2.8-9.38 1.867-2.147 4.617-3.22 8.25-3.22v0c1.567 0 3.767 0.4 6.6 1.2v0l-1.5 2.9c-1.833-0.533-3.483-0.8-4.95-0.8v0c-2.533 0-4.357 0.75-5.47 2.25-1.12 1.5-1.68 3.867-1.68 7.1v0c0 6.567 2.35 9.85 7.05 9.85v0c1.867 0 3.85-0.3 5.95-0.9zM123.15-14.95v0h2.05c0-3.033-0.383-5.01-1.15-5.93-0.767-0.913-2.467-1.37-5.1-1.37-2.633 0-4.867 0.35-6.7 1.05v0l-0.7-2.9c2.8-0.933 5.7-1.4 8.7-1.4v0c5.867 0 8.8 2.933 8.8 8.8v0 16.7h-2.2l-1.3-2.95c-1.533 1.267-2.857 2.123-3.97 2.57-1.12 0.453-2.413 0.68-3.88 0.68v0c-2.333 0-4.15-0.693-5.45-2.08-1.3-1.38-1.95-3.203-1.95-5.47v0c0-5.133 4.283-7.7 12.85-7.7zM125.25-6.55v-5.25h-2.25c-3.4 0-5.74 0.333-7.02 1-1.287 0.667-1.93 1.707-1.93 3.12 0 1.42 0.367 2.58 1.1 3.48 0.733 0.9 1.693 1.35 2.88 1.35 1.18 0 2.313-0.277 3.4-0.83 1.08-0.547 2.353-1.503 3.82-2.87zM141.9 0h-3.75v-35h3.75z" fill="#b0cbe8" fill-rule="nonzero" stroke="none" stroke-width="1" stroke-linecap="butt" stroke-linejoin="miter" stroke-miterlimit="10" stroke-dasharray="" stroke-dashoffset="0" font-family="none" font-weight="none" font-size="none" text-anchor="none" style="mix-blend-mode: normal" data-fill-palette-color="quaternary" opacity="1"></path><path transform="translate(0,99.8)" d="M29.85-18.75v0c0 5.633-1.633 10.167-4.9 13.6-3.267 3.433-7.633 5.15-13.1 5.15v0h-7.3v-35h8.85c4.967 0 8.95 1.517 11.95 4.55 3 3.033 4.5 6.933 4.5 11.7zM25.8-19.15v0c0-3.933-1.2-7.017-3.6-9.25-2.4-2.233-5.267-3.35-8.6-3.35v0h-5v28.5h3.7c3.767 0 6.96-1.417 9.58-4.25 2.613-2.833 3.92-6.717 3.92-11.65zM54.25-11.7v0h-15.95c0 3.2 0.76 5.467 2.28 6.8 1.513 1.333 3.42 2 5.72 2v0c1.167 0 1.983-0.06 2.45-0.18 0.467-0.113 0.91-0.23 1.33-0.35 0.413-0.113 0.703-0.203 0.87-0.27v0c0.833-0.233 1.55-0.45 2.15-0.65v0l0.6 2.9c-3.333 1.167-5.933 1.75-7.8 1.75v0c-3.433 0-6.183-1.043-8.25-3.13-2.067-2.08-3.1-5.213-3.1-9.4 0-4.18 0.977-7.437 2.93-9.77 1.947-2.333 4.413-3.5 7.4-3.5 2.98 0 5.303 0.967 6.97 2.9 1.667 1.933 2.5 4.55 2.5 7.85v0c0 0.9-0.033 1.917-0.1 3.05zM38.55-14.55v0h12.2c0-2.467-0.433-4.367-1.3-5.7-0.867-1.333-2.373-2-4.52-2-2.153 0-3.73 0.717-4.73 2.15-1 1.433-1.55 3.283-1.65 5.55zM74.35-25.05h4.15l-8.45 25.05h-4.3l-8.4-25.05h4.25l6.35 21.05zM100.95-11.7v0h-15.95c0 3.2 0.76 5.467 2.28 6.8 1.513 1.333 3.42 2 5.72 2v0c1.167 0 1.983-0.06 2.45-0.18 0.467-0.113 0.91-0.23 1.33-0.35 0.413-0.113 0.703-0.203 0.87-0.27v0c0.833-0.233 1.55-0.45 2.15-0.65v0l0.6 2.9c-3.333 1.167-5.933 1.75-7.8 1.75v0c-3.433 0-6.183-1.043-8.25-3.13-2.067-2.08-3.1-5.213-3.1-9.4 0-4.18 0.977-7.437 2.93-9.77 1.947-2.333 4.413-3.5 7.4-3.5 2.98 0 5.303 0.967 6.97 2.9 1.667 1.933 2.5 4.55 2.5 7.85v0c0 0.9-0.033 1.917-0.1 3.05zM85.25-14.55v0h12.2c0-2.467-0.433-4.367-1.3-5.7-0.867-1.333-2.373-2-4.52-2-2.153 0-3.73 0.717-4.73 2.15-1 1.433-1.55 3.283-1.65 5.55zM111.8 0h-3.75v-35h3.75zM136.35-12.33c0-3.213-0.633-5.67-1.9-7.37-1.267-1.7-3.117-2.55-5.55-2.55-2.433 0-4.157 0.807-5.17 2.42-1.02 1.62-1.53 4.097-1.53 7.43v0c0 6.3 2.317 9.45 6.95 9.45v0c2.433 0 4.243-0.76 5.43-2.28 1.18-1.513 1.77-3.88 1.77-7.1zM137.25-3.1c-1.9 2.267-4.583 3.4-8.05 3.4-3.467 0-6.123-1.127-7.97-3.38-1.853-2.247-2.78-5.397-2.78-9.45 0-4.047 0.893-7.22 2.68-9.52 1.78-2.3 4.397-3.45 7.85-3.45 3.447 0 6.163 1.167 8.15 3.5 1.98 2.333 2.97 5.5 2.97 9.5 0 4-0.95 7.133-2.85 9.4zM150.55-2.05v13.95h-3.75v-36.85h2.2l1.3 2.8c1.4-1.067 2.71-1.893 3.93-2.48 1.213-0.58 2.553-0.87 4.02-0.87v0c6 0 9 4.317 9 12.95v0c0 4.9-1.067 8.317-3.2 10.25v0c-1.9 1.767-4.057 2.65-6.47 2.65-2.42 0-4.763-0.8-7.03-2.4zM150.55-18.8v0 13.35c0.667 0.8 1.567 1.433 2.7 1.9 1.133 0.467 2.217 0.7 3.25 0.7v0c2.6 0 4.417-0.767 5.45-2.3 1.033-1.533 1.55-3.933 1.55-7.2 0-3.267-0.517-5.733-1.55-7.4-1.033-1.667-2.35-2.5-3.95-2.5v0c-1.067 0-2.123 0.217-3.17 0.65-1.053 0.433-1.837 0.84-2.35 1.22-0.52 0.387-1.163 0.913-1.93 1.58zM191.45-11.7v0h-15.95c0 3.2 0.76 5.467 2.28 6.8 1.513 1.333 3.42 2 5.72 2v0c1.167 0 1.983-0.06 2.45-0.18 0.467-0.113 0.91-0.23 1.33-0.35 0.413-0.113 0.703-0.203 0.87-0.27v0c0.833-0.233 1.55-0.45 2.15-0.65v0l0.6 2.9c-3.333 1.167-5.933 1.75-7.8 1.75v0c-3.433 0-6.183-1.043-8.25-3.13-2.067-2.08-3.1-5.213-3.1-9.4 0-4.18 0.977-7.437 2.93-9.77 1.947-2.333 4.413-3.5 7.4-3.5 2.98 0 5.303 0.967 6.97 2.9 1.667 1.933 2.5 4.55 2.5 7.85v0c0 0.9-0.033 1.917-0.1 3.05zM175.75-14.55v0h12.2c0-2.467-0.433-4.367-1.3-5.7-0.867-1.333-2.373-2-4.52-2-2.153 0-3.73 0.717-4.73 2.15-1 1.433-1.55 3.283-1.65 5.55zM202.3-19.1v0 19.1h-3.75v-25h2.4l0.6 2.95c1.6-1.267 2.933-2.16 4-2.68 1.067-0.513 2.283-0.77 3.65-0.77v0c0.667 0 1.167 0.033 1.5 0.1v0l0.7 0.2-0.6 3.45c-0.6-0.2-1.417-0.3-2.45-0.3v0c-2 0-4.017 0.983-6.05 2.95z" fill="#b0cbe8" fill-rule="nonzero" stroke="none" stroke-width="1" stroke-linecap="butt" stroke-linejoin="miter" stroke-miterlimit="10" stroke-dasharray="" stroke-dashoffset="0" font-family="none" font-weight="none" font-size="none" text-anchor="none" style="mix-blend-mode: normal" data-fill-palette-color="quaternary" opacity="1"></path></g></svg></g></svg></g></svg></g></svg></g><g transform="matrix(1,0,0,1,193.3268756256344,82.86068004765824)"><svg viewBox="0 0 176.9835311831718 176.9835311831718" height="176.9835311831718" width="176.9835311831718"><g><svg xmlns="http://www.w3.org/2000/svg" xmlns:xlink="http://www.w3.org/1999/xlink" version="1.1" x="0" y="0" viewBox="0.5 0.5 47 47" enable-background="new 0 0 48 48" xml:space="preserve" height="176.9835311831718" width="176.9835311831718" class="icon-icon-0" data-fill-palette-color="quaternary" id="icon-0"><g fill="#b0cbe8" data-fill-palette-color="quaternary"><path fill="#b0cbe8" d="M12.1 29.8h23.8V14H12.1V29.8zM21.9 27h7.3V28h-7.3V27zM14.5 23.4l4-1.9-4-1.8v-1.8l6.1 2.8v1.7l-6.1 2.8V23.4z" data-fill-palette-color="quaternary"></path><path fill="#b0cbe8" d="M6.9 33.2h34.2V7.1H6.9V33.2zM31.6 8.6H37v2h-5.4V8.6zM10 12h28v19.9H10V12z" data-fill-palette-color="quaternary"></path><path fill="#b0cbe8" d="M47.5 39.6V0.5h-47v39.1h15.2v5.9h-4.1v2h24.9v-2h-4.1v-5.9H47.5zM4.8 35.3V5.1h38.4v30.2H4.8z" data-fill-palette-color="quaternary"></path></g></svg></g></svg></g></svg></g></svg></g></svg></g></svg></g><defs></defs></svg><rect width="334.126409892539" height="334.126409892539" fill="none" stroke="none" visibility="hidden"></rect></g></svg></g></svg>