<svg xmlns="http://www.w3.org/2000/svg" version="1.1" xmlns:xlink="http://www.w3.org/1999/xlink" xmlns:svgjs="http://svgjs.dev/svgjs" width="308" height="308" viewBox="0 0 2000 1999"><g transform="matrix(1,0,0,1,-0.431486880466764,-0.4312711370263287)"><svg viewBox="0 0 343 343" data-background-color="#b0cbe8" preserveAspectRatio="xMidYMid meet" width="308" height="308"  xmlns="http://www.w3.org/2000/svg" xmlns:xlink="http://www.w3.org/1999/xlink"><g id="tight-bounds" transform="matrix(1,0,0,1,0.0740000000000407,0.07400000000001228)"><svg viewBox="0 0 342.85155851775386 342.85155851775386" height="342.85155851775386" width="342.85155851775386"><g><svg></svg></g><g><svg viewBox="0 0 342.85155851775386 342.85155851775386" height="342.85155851775386" width="342.85155851775386"><g><path d="M0 171.426c0-94.676 76.75-171.426 171.426-171.426 94.676 0 171.426 76.75 171.426 171.426 0 94.676-76.75 171.426-171.426 171.426-94.676 0-171.426-76.75-171.426-171.426zM171.426 340.009c93.106 0 168.583-75.477 168.583-168.583 0-93.106-75.477-168.583-168.583-168.583-93.106 0-168.583 75.477-168.583 168.583 0 93.106 75.477 168.583 168.583 168.583z" data-fill-palette-color="tertiary" fill="#eeff01" stroke="transparent"></path><ellipse rx="164.56874808852186" ry="164.56874808852186" cx="171.42577925887693" cy="171.42577925887693" fill="#eeff01" stroke="transparent" stroke-width="0" fill-opacity="1" data-fill-palette-color="tertiary"></ellipse></g><g transform="matrix(1,0,0,1,64.84655864529837,99.79995728127348)"><svg viewBox="0 0 213.1584412271571 143.2516439552069" height="143.2516439552069" width="213.1584412271571"><g><svg viewBox="0 0 213.1584412271571 143.2516439552069" height="143.2516439552069" width="213.1584412271571"><g><svg viewBox="0 0 213.1584412271571 143.2516439552069" height="143.2516439552069" width="213.1584412271571"><g transform="matrix(1,0,0,1,0,86.23684530067678)"><svg viewBox="0 0 213.1584412271571 57.014798654530125" height="57.014798654530125" width="213.1584412271571"><g id="textblocktransform"><svg viewBox="0 0 213.1584412271571 57.014798654530125" height="57.014798654530125" width="213.1584412271571" id="textblock"><g><svg viewBox="0 0 213.1584412271571 31.52541368083214" height="31.52541368083214" width="213.1584412271571"><g transform="matrix(1,0,0,1,0,0)"><svg width="213.1584412271571" viewBox="2.95 -38.7 265.03000000000003 39.2" height="31.52541368083214" data-palette-color="#b0cbe8"><path d="M29.7-7L31.75-2.7Q30.85-2.1 29.3-1.35 27.75-0.6 25.68-0.1 23.6 0.4 21.15 0.4L21.15 0.4Q16.95 0.35 13.58-1.1 10.2-2.55 7.85-5.05 5.5-7.55 4.23-10.83 2.95-14.1 2.95-17.8L2.95-17.8Q2.95-21.85 4.28-25.28 5.6-28.7 8-31.23 10.4-33.75 13.68-35.15 16.95-36.55 20.85-36.55L20.85-36.55Q24.1-36.55 26.75-35.68 29.4-34.8 31.3-33.6L31.3-33.6 29.35-29.1Q27.85-30.1 25.73-31 23.6-31.9 21-31.9L21-31.9Q18.35-31.9 16-30.85 13.65-29.8 11.85-27.9 10.05-26 9.03-23.48 8-20.95 8-18.05L8-18.05Q8-15.1 8.93-12.58 9.85-10.05 11.58-8.2 13.3-6.35 15.75-5.3 18.2-4.25 21.25-4.25L21.25-4.25Q24-4.25 26.15-5.1 28.3-5.95 29.7-7L29.7-7ZM47.35 0.5L47.35 0.5Q44.45 0.5 42.07-0.75 39.7-2 38.32-4.42 36.95-6.85 36.95-10.35L36.95-10.35Q36.95-13.8 38.4-16.32 39.85-18.85 42.27-20.2 44.7-21.55 47.6-21.55L47.6-21.55Q50.5-21.55 52.5-20.23 54.5-18.9 55.55-17.1L55.55-17.1 55.25-16.3 55.7-20.7 60-20.7 60 0 55.35 0 55.35-5.4 55.85-4.2Q55.65-3.7 54.97-2.93 54.3-2.15 53.17-1.35 52.05-0.55 50.6-0.03 49.15 0.5 47.35 0.5ZM48.6-3.35L48.6-3.35Q50.35-3.35 51.75-4 53.15-4.65 54.07-5.83 55-7 55.35-8.65L55.35-8.65 55.35-12.7Q54.95-14.2 53.95-15.33 52.95-16.45 51.55-17.07 50.15-17.7 48.45-17.7L48.45-17.7Q46.6-17.7 45.05-16.8 43.5-15.9 42.57-14.3 41.65-12.7 41.65-10.55L41.65-10.55Q41.65-8.55 42.6-6.9 43.55-5.25 45.15-4.3 46.75-3.35 48.6-3.35ZM68.05-20.7L72.2-20.7 72.65-14.7 72.4-15.5Q73.2-17.4 74.72-18.73 76.25-20.05 77.92-20.78 79.59-21.5 80.84-21.5L80.84-21.5 80.59-16.9Q78.25-17.05 76.47-16 74.7-14.95 73.67-13.2 72.65-11.45 72.65-9.45L72.65-9.45 72.65 0 68.05 0 68.05-20.7ZM84.14-10.55L84.14-10.55Q84.14-13.65 85.62-16.15 87.09-18.65 89.69-20.1 92.29-21.55 95.59-21.55L95.59-21.55Q98.99-21.55 101.54-20.1 104.09-18.65 105.49-16.15 106.89-13.65 106.89-10.55L106.89-10.55Q106.89-7.45 105.49-4.93 104.09-2.4 101.52-0.95 98.94 0.5 95.54 0.5L95.54 0.5Q92.24 0.5 89.67-0.88 87.09-2.25 85.62-4.73 84.14-7.2 84.14-10.55ZM88.79-10.5L88.79-10.5Q88.79-8.5 89.69-6.88 90.59-5.25 92.12-4.3 93.64-3.35 95.49-3.35L95.49-3.35Q97.44-3.35 98.97-4.3 100.49-5.25 101.34-6.88 102.19-8.5 102.19-10.5L102.19-10.5Q102.19-12.5 101.34-14.13 100.49-15.75 98.97-16.73 97.44-17.7 95.49-17.7L95.49-17.7Q93.59-17.7 92.07-16.7 90.54-15.7 89.67-14.08 88.79-12.45 88.79-10.5ZM113.19 0L113.19-38.7 117.84-38.7 117.84 0 113.19 0ZM125.89 0L125.89-20.7 130.54-20.7 130.54 0 125.89 0ZM125.54-28.2L125.54-28.2Q125.54-29.3 126.41-30.05 127.29-30.8 128.34-30.8L128.34-30.8Q129.39-30.8 130.21-30.05 131.04-29.3 131.04-28.2L131.04-28.2Q131.04-27.05 130.21-26.33 129.39-25.6 128.34-25.6L128.34-25.6Q127.29-25.6 126.41-26.35 125.54-27.1 125.54-28.2ZM138.59-20.7L142.73-20.7 143.13-15.65 142.94-16.45Q143.94-18.75 146.19-20.13 148.44-21.5 151.38-21.5L151.38-21.5Q154.34-21.5 156.21-19.78 158.09-18.05 158.13-15.3L158.13-15.3 158.13 0 153.44 0 153.44-13.65Q153.38-15.35 152.46-16.43 151.53-17.5 149.59-17.5L149.59-17.5Q147.78-17.5 146.34-16.5 144.88-15.5 144.06-13.75 143.23-12 143.23-9.7L143.23-9.7 143.23 0 138.59 0 138.59-20.7ZM175.83 0.5L175.83 0.5Q172.28 0.5 169.73-0.93 167.18-2.35 165.81-4.83 164.43-7.3 164.43-10.5L164.43-10.5Q164.43-13.55 165.98-16.05 167.53-18.55 170.13-20.05 172.73-21.55 175.93-21.55L175.93-21.55Q180.03-21.55 182.73-19.15 185.43-16.75 186.38-12.55L186.38-12.55 169.33-6.55 168.23-9.3 182.23-14.4 181.23-13.75Q180.63-15.4 179.23-16.63 177.83-17.85 175.58-17.85L175.58-17.85Q173.68-17.85 172.18-16.93 170.68-16 169.83-14.4 168.98-12.8 168.98-10.75L168.98-10.75Q168.98-8.6 169.88-6.98 170.78-5.35 172.36-4.42 173.93-3.5 175.93-3.5L175.93-3.5Q177.28-3.5 178.56-4 179.83-4.5 180.93-5.3L180.93-5.3 183.08-1.85Q181.53-0.8 179.61-0.15 177.68 0.5 175.83 0.5ZM232.98-36.15L237.78-36.15 237.78 0 232.98 0 232.98-15.85 214.03-15.85 214.03 0 209.18 0 209.18-36.15 214.03-36.15 214.03-20.45 232.98-20.45 232.98-36.15ZM245.23-10.55L245.23-10.55Q245.23-13.65 246.7-16.15 248.18-18.65 250.78-20.1 253.38-21.55 256.68-21.55L256.68-21.55Q260.08-21.55 262.63-20.1 265.18-18.65 266.58-16.15 267.98-13.65 267.98-10.55L267.98-10.55Q267.98-7.45 266.58-4.93 265.18-2.4 262.6-0.95 260.03 0.5 256.63 0.5L256.63 0.5Q253.33 0.5 250.75-0.88 248.18-2.25 246.7-4.73 245.23-7.2 245.23-10.55ZM249.88-10.5L249.88-10.5Q249.88-8.5 250.78-6.88 251.68-5.25 253.2-4.3 254.73-3.35 256.58-3.35L256.58-3.35Q258.53-3.35 260.05-4.3 261.58-5.25 262.43-6.88 263.28-8.5 263.28-10.5L263.28-10.5Q263.28-12.5 262.43-14.13 261.58-15.75 260.05-16.73 258.53-17.7 256.58-17.7L256.58-17.7Q254.68-17.7 253.15-16.7 251.63-15.7 250.75-14.08 249.88-12.45 249.88-10.5Z" opacity="1" transform="matrix(1,0,0,1,0,0)" fill="#b0cbe8" class="wordmark-text-0" data-fill-palette-color="quaternary" id="text-0"></path></svg></g></svg></g><g transform="matrix(1,0,0,1,0,38.96780724094827)"><svg viewBox="0 0 213.1584412271571 18.046991413581853" height="18.046991413581853" width="213.1584412271571"><g transform="matrix(1,0,0,1,0,0)"><svg width="213.1584412271571" viewBox="4.55 -35 553.8900000000001 46.900000000000006" height="18.046991413581853" data-palette-color="#b0cbe8"><path d="M29.4-35L29.4 0.05 25.3 0.05 8.45-28 8.45 0 4.55 0 4.55-35 8.45-35 25.65-5.9 25.65-35 29.4-35ZM53.95-12.33Q53.95-17.15 52.05-19.7 50.15-22.25 46.5-22.25 42.85-22.25 41.32-19.83 39.8-17.4 39.8-12.4L39.8-12.4Q39.8-2.95 46.75-2.95L46.75-2.95Q50.4-2.95 52.17-5.23 53.95-7.5 53.95-12.33ZM54.85-3.1Q52 0.3 46.8 0.3 41.6 0.3 38.82-3.08 36.05-6.45 36.05-12.53 36.05-18.6 38.72-22.05 41.4-25.5 46.57-25.5 51.75-25.5 54.72-22 57.7-18.5 57.7-12.5 57.7-6.5 54.85-3.1ZM65-5.4L65-5.4 65-22 61.6-22 61.6-25 65.05-25 65.05-32.15 68.8-32.15 68.8-25 74.9-25 74.9-22 68.75-22 68.75-6.1Q68.75-2.75 72.15-2.75L72.15-2.75Q72.95-2.75 74.6-3.05L74.6-3.05 75.15-0.35Q73.1 0.3 70.92 0.3 68.75 0.3 66.87-1.03 65-2.35 65-5.4ZM98.64 0.5L98.64 0.5 90.19-25 94.44-25 100.79-4 107.19-25 111.34-25 102.74 0Q101.09 4.85 99.09 7.5 97.09 10.15 93.94 11.8L93.94 11.8 92.54 9.2Q94.54 8.05 96.29 5.8 98.04 3.55 98.64 0.5ZM131.89-12.33Q131.89-17.15 129.99-19.7 128.09-22.25 124.44-22.25 120.79-22.25 119.26-19.83 117.74-17.4 117.74-12.4L117.74-12.4Q117.74-2.95 124.69-2.95L124.69-2.95Q128.34-2.95 130.11-5.23 131.89-7.5 131.89-12.33ZM132.79-3.1Q129.94 0.3 124.74 0.3 119.54 0.3 116.76-3.08 113.99-6.45 113.99-12.53 113.99-18.6 116.66-22.05 119.34-25.5 124.51-25.5 129.69-25.5 132.66-22 135.64-18.5 135.64-12.5 135.64-6.5 132.79-3.1ZM156.64-6.35L156.64-6.35 156.64-25 160.44-25 160.44 0 158.24 0 156.99-2.95Q152.99 0.3 149.34 0.3 145.69 0.3 143.76-1.83 141.84-3.95 141.84-7.85L141.84-7.85 141.84-25 145.59-25 145.59-8.45Q145.59-5.5 146.46-4.2 147.34-2.9 149.36-2.9 151.39-2.9 153.49-4 155.59-5.1 156.64-6.35ZM173.28-19.1L173.28-19.1 173.28 0 169.53 0 169.53-25 171.93-25 172.53-22.05Q174.93-23.95 176.53-24.73 178.13-25.5 180.18-25.5L180.18-25.5Q181.18-25.5 181.68-25.4L181.68-25.4 182.38-25.2 181.78-21.75Q180.88-22.05 179.33-22.05L179.33-22.05Q176.33-22.05 173.28-19.1ZM201.18-5.4L201.18-5.4 201.18-22 197.78-22 197.78-25 201.23-25 201.23-32.15 204.98-32.15 204.98-25 211.08-25 211.08-22 204.93-22 204.93-6.1Q204.93-2.75 208.33-2.75L208.33-2.75Q209.13-2.75 210.78-3.05L210.78-3.05 211.33-0.35Q209.28 0.3 207.1 0.3 204.93 0.3 203.05-1.03 201.18-2.35 201.18-5.4ZM222.33 0.5L222.33 0.5 213.88-25 218.13-25 224.48-4 230.88-25 235.03-25 226.43 0Q224.78 4.85 222.78 7.5 220.78 10.15 217.63 11.8L217.63 11.8 216.23 9.2Q218.23 8.05 219.98 5.8 221.73 3.55 222.33 0.5ZM243.87-2.05L243.87 11.9 240.12 11.9 240.12-24.95 242.32-24.95 243.62-22.15Q245.72-23.75 247.55-24.63 249.37-25.5 251.57-25.5L251.57-25.5Q260.57-25.5 260.57-12.55L260.57-12.55Q260.57-5.2 257.37-2.3L257.37-2.3Q254.52 0.35 250.9 0.35 247.27 0.35 243.87-2.05L243.87-2.05ZM243.87-18.8L243.87-18.8 243.87-5.45Q244.87-4.25 246.57-3.55 248.27-2.85 249.82-2.85L249.82-2.85Q253.72-2.85 255.27-5.15 256.82-7.45 256.82-12.35 256.82-17.25 255.27-19.75 253.72-22.25 251.32-22.25L251.32-22.25Q249.72-22.25 248.15-21.6 246.57-20.95 245.8-20.38 245.02-19.8 243.87-18.8ZM270.47 0L266.72 0 266.72-25 270.47-25 270.47 0ZM266.72-35L270.47-35 270.47-30.55 266.72-30.55 266.72-35ZM293.52-3.9L293.52-3.9 294.27-0.95Q290.27 0.25 287.22 0.25L287.22 0.25Q281.87 0.25 279.17-3.25 276.47-6.75 276.47-12.9 276.47-19.05 279.27-22.28 282.07-25.5 287.52-25.5L287.52-25.5Q289.87-25.5 294.12-24.3L294.12-24.3 292.62-21.4Q289.87-22.2 287.67-22.2L287.67-22.2Q283.87-22.2 282.19-19.95 280.52-17.7 280.52-12.85L280.52-12.85Q280.52-3 287.57-3L287.57-3Q290.37-3 293.52-3.9ZM311.27-14.95L311.27-14.95 313.31-14.95Q313.31-19.5 312.17-20.88 311.02-22.25 307.06-22.25 303.12-22.25 300.37-21.2L300.37-21.2 299.67-24.1Q303.87-25.5 308.37-25.5L308.37-25.5Q317.17-25.5 317.17-16.7L317.17-16.7 317.17 0 314.97 0 313.67-2.95Q311.37-1.05 309.69-0.38 308.02 0.3 305.81 0.3L305.81 0.3Q302.31 0.3 300.37-1.78 298.42-3.85 298.42-7.25L298.42-7.25Q298.42-14.95 311.27-14.95ZM313.37-6.55L313.37-11.8 311.12-11.8Q306.02-11.8 304.09-10.8 302.17-9.8 302.17-7.68 302.17-5.55 303.27-4.2 304.37-2.85 306.14-2.85 307.92-2.85 309.54-3.68 311.17-4.5 313.37-6.55L313.37-6.55ZM330.01 0L326.26 0 326.26-35 330.01-35 330.01 0ZM376.91-18.75L376.91-18.75Q376.91-10.3 372.01-5.15 367.11 0 358.91 0L358.91 0 351.61 0 351.61-35 360.46-35Q367.91-35 372.41-30.45 376.91-25.9 376.91-18.75ZM372.86-19.15L372.86-19.15Q372.86-25.05 369.26-28.4 365.66-31.75 360.66-31.75L360.66-31.75 355.66-31.75 355.66-3.25 359.36-3.25Q365.01-3.25 368.93-7.5 372.86-11.75 372.86-19.15ZM401.31-11.7L401.31-11.7 385.36-11.7Q385.36-6.9 387.63-4.9 389.91-2.9 393.36-2.9L393.36-2.9Q395.11-2.9 395.81-3.08 396.51-3.25 397.13-3.43 397.76-3.6 398.01-3.7L398.01-3.7Q399.26-4.05 400.16-4.35L400.16-4.35 400.76-1.45Q395.76 0.3 392.96 0.3L392.96 0.3Q387.81 0.3 384.71-2.83 381.61-5.95 381.61-12.23 381.61-18.5 384.53-22 387.46-25.5 391.93-25.5 396.41-25.5 398.91-22.6 401.41-19.7 401.41-14.75L401.41-14.75Q401.41-13.4 401.31-11.7ZM385.61-14.55L385.61-14.55 397.81-14.55Q397.81-18.25 396.51-20.25 395.21-22.25 391.98-22.25 388.76-22.25 387.26-20.1 385.76-17.95 385.61-14.55ZM421.4-25.05L425.55-25.05 417.1 0 412.8 0 404.4-25.05 408.65-25.05 415-4 421.4-25.05ZM448-11.7L448-11.7 432.05-11.7Q432.05-6.9 434.33-4.9 436.6-2.9 440.05-2.9L440.05-2.9Q441.8-2.9 442.5-3.08 443.2-3.25 443.83-3.43 444.45-3.6 444.7-3.7L444.7-3.7Q445.95-4.05 446.85-4.35L446.85-4.35 447.45-1.45Q442.45 0.3 439.65 0.3L439.65 0.3Q434.5 0.3 431.4-2.83 428.3-5.95 428.3-12.23 428.3-18.5 431.23-22 434.15-25.5 438.63-25.5 443.1-25.5 445.6-22.6 448.1-19.7 448.1-14.75L448.1-14.75Q448.1-13.4 448-11.7ZM432.3-14.55L432.3-14.55 444.5-14.55Q444.5-18.25 443.2-20.25 441.9-22.25 438.68-22.25 435.45-22.25 433.95-20.1 432.45-17.95 432.3-14.55ZM458.85 0L455.1 0 455.1-35 458.85-35 458.85 0ZM483.4-12.33Q483.4-17.15 481.5-19.7 479.6-22.25 475.95-22.25 472.3-22.25 470.77-19.83 469.25-17.4 469.25-12.4L469.25-12.4Q469.25-2.95 476.2-2.95L476.2-2.95Q479.85-2.95 481.62-5.23 483.4-7.5 483.4-12.33ZM484.3-3.1Q481.45 0.3 476.25 0.3 471.05 0.3 468.27-3.08 465.5-6.45 465.5-12.53 465.5-18.6 468.17-22.05 470.85-25.5 476.02-25.5 481.2-25.5 484.17-22 487.15-18.5 487.15-12.5 487.15-6.5 484.3-3.1ZM497.59-2.05L497.59 11.9 493.84 11.9 493.84-24.95 496.04-24.95 497.34-22.15Q499.44-23.75 501.27-24.63 503.09-25.5 505.29-25.5L505.29-25.5Q514.29-25.5 514.29-12.55L514.29-12.55Q514.29-5.2 511.09-2.3L511.09-2.3Q508.24 0.35 504.62 0.35 500.99 0.35 497.59-2.05L497.59-2.05ZM497.59-18.8L497.59-18.8 497.59-5.45Q498.59-4.25 500.29-3.55 501.99-2.85 503.54-2.85L503.54-2.85Q507.44-2.85 508.99-5.15 510.54-7.45 510.54-12.35 510.54-17.25 508.99-19.75 507.44-22.25 505.04-22.25L505.04-22.25Q503.44-22.25 501.87-21.6 500.29-20.95 499.52-20.38 498.74-19.8 497.59-18.8ZM538.49-11.7L538.49-11.7 522.54-11.7Q522.54-6.9 524.82-4.9 527.09-2.9 530.54-2.9L530.54-2.9Q532.29-2.9 532.99-3.08 533.69-3.25 534.32-3.43 534.94-3.6 535.19-3.7L535.19-3.7Q536.44-4.05 537.34-4.35L537.34-4.35 537.94-1.45Q532.94 0.3 530.14 0.3L530.14 0.3Q524.99 0.3 521.89-2.83 518.79-5.95 518.79-12.23 518.79-18.5 521.72-22 524.64-25.5 529.12-25.5 533.59-25.5 536.09-22.6 538.59-19.7 538.59-14.75L538.59-14.75Q538.59-13.4 538.49-11.7ZM522.79-14.55L522.79-14.55 534.99-14.55Q534.99-18.25 533.69-20.25 532.39-22.25 529.17-22.25 525.94-22.25 524.44-20.1 522.94-17.95 522.79-14.55ZM549.34-19.1L549.34-19.1 549.34 0 545.59 0 545.59-25 547.99-25 548.59-22.05Q550.99-23.95 552.59-24.73 554.19-25.5 556.24-25.5L556.24-25.5Q557.24-25.5 557.74-25.4L557.74-25.4 558.44-25.2 557.84-21.75Q556.94-22.05 555.39-22.05L555.39-22.05Q552.39-22.05 549.34-19.1Z" opacity="1" transform="matrix(1,0,0,1,0,0)" fill="#b0cbe8" class="slogan-text-1" data-fill-palette-color="quaternary" id="text-1"></path></svg></g></svg></g></svg></g></svg></g><g transform="matrix(1,0,0,1,67.18199474329823,0)"><svg viewBox="0 0 78.79445174056065 78.79445174056065" height="78.79445174056065" width="78.79445174056065"><g><svg xmlns="http://www.w3.org/2000/svg" xmlns:xlink="http://www.w3.org/1999/xlink" version="1.1" x="0" y="0" viewBox="0.5 0.5 47 47" enable-background="new 0 0 48 48" xml:space="preserve" height="78.79445174056065" width="78.79445174056065" class="icon-icon-0" data-fill-palette-color="quaternary" id="icon-0"><g fill="#b0cbe8" data-fill-palette-color="quaternary"><path fill="#b0cbe8" d="M12.1 29.8h23.8V14H12.1V29.8zM21.9 27h7.3V28h-7.3V27zM14.5 23.4l4-1.9-4-1.8v-1.8l6.1 2.8v1.7l-6.1 2.8V23.4z" data-fill-palette-color="quaternary"></path><path fill="#b0cbe8" d="M6.9 33.2h34.2V7.1H6.9V33.2zM31.6 8.6H37v2h-5.4V8.6zM10 12h28v19.9H10V12z" data-fill-palette-color="quaternary"></path><path fill="#b0cbe8" d="M47.5 39.6V0.5h-47v39.1h15.2v5.9h-4.1v2h24.9v-2h-4.1v-5.9H47.5zM4.8 35.3V5.1h38.4v30.2H4.8z" data-fill-palette-color="quaternary"></path></g></svg></g></svg></g><g></g></svg></g></svg></g></svg></g></svg></g><defs></defs></svg><rect width="342.85155851775386" height="342.85155851775386" fill="none" stroke="none" visibility="hidden"></rect></g></svg></g></svg>